# xmcd
# 
# Track frame offsets:
#     150
#     21117
#     37835
#     58040
#     68634
#     80013
#     97724
#     114565
#     129940
#     147676
#     160101
#     172331
#     185892
#     196669
#     209282
# 
# Disc length: 2993
# 
# Revision: 1
# Processed by: cddbd v1.5.2PL0 Copyright (c) Steve Scherf et al.
# Submitted via: fre:ac v1.0.17
# 
DISCID=cf0baf0f
DTITLE=Various Artist - Le coffret ideal BLUES – cd2
DYEAR=2012
DGENRE=Blues
TTITLE0=ZZ Top - Blue jean blues
TTITLE1=Blues Images - Pay my dues
TTITLE2=R Randolph and The Family Band - Nobody
TTITLE3=Freddie King - That will never do
TTITLE4=Muddy Waters - Gypsy woman
TTITLE5=Champion Jack Dupree - Stack o lee
TTITLE6=Ella Fitzgerald - Dearie blues
TTITLE7=Olu Dara - Strange things happen every day
TTITLE8=James Cotton - V8 ford
TTITLE9=T-Bone Walker - Blues is a woman
TTITLE10=Roy Milton - Big fat mama
TTITLE11=Pee Wee Crayton - Blues after hours
TTITLE12=Billy the Kid Emerson - Red hot
TTITLE13=Rufus Thomas Jr - Bear cat
TTITLE14=Ray Charles - Sinner's prayers
EXTD=
EXTT0=
EXTT1=
EXTT2=
EXTT3=
EXTT4=
EXTT5=
EXTT6=
EXTT7=
EXTT8=
EXTT9=
EXTT10=
EXTT11=
EXTT12=
EXTT13=
EXTT14=
PLAYORDER=
